<?xml version="1.0" standalone="no"?><!DOCTYPE svg PUBLIC "-//W3C//DTD SVG 1.1//EN"
        "http://www.w3.org/Graphics/SVG/1.1/DTD/svg11.dtd">
<svg t="1594180056724" class="icon" viewBox="0 0 1024 1024" version="1.1" xmlns="http://www.w3.org/2000/svg" p-id="585"
     width="16" height="16">
    <defs>
        <style type="text/css"></style>
    </defs>
    <path d="M926.293333 237.226667c-31.189333-56.149333-87.04-72.96-126.421333-73.728-48.341333-0.981333-88.106667 25.813333-80.554667 43.392 1.578667 3.754667 10.666667 23.466667 16.213334 31.573333 8.106667 11.776 22.485333 2.773333 27.562666 0.085333 15.061333-8.021333 31.146667-10.666667 49.493334-8.490666 17.450667 2.005333 40.704 12.8 56.277333 42.709333 36.650667 70.485333-76.544 215.466667-218.197333 115.072-141.653333-100.437333-279.381333-67.157333-341.76-46.933333-62.378667 20.266667-91.093333 40.618667-66.389334 87.637333 33.493333 64 22.357333 44.373333 54.826667 97.28 51.626667 84.053333 164.48-38.698667 164.48-38.698667-84.053333 123.989333-156.16 94.037333-183.850667 50.688-24.917333-39.04-44.288-84.096-44.288-84.096-213.034667 75.136-155.392 406.826667-155.392 406.826667h105.813334c26.965333-122.154667 123.392-117.632 139.946666 0h80.682667c71.424-238.506667 252.373333 0 252.373333 0h105.216c-29.44-162.688 59.221333-213.76 115.072-309.162667 55.893333-95.36 108.8-212.053333 48.896-314.197333z m-271.445333 314.069333c-55.637333-18.176-35.712-73.514667-35.712-73.514667s48.597333 15.701333 114.346667 37.12c-3.84 17.194667-36.522667 50.133333-78.634667 36.394667z"
          fill="#0097A7" p-id="586"></path>
</svg>