<?xml version="1.0" standalone="no"?><!DOCTYPE svg PUBLIC "-//W3C//DTD SVG 1.1//EN"
        "http://www.w3.org/Graphics/SVG/1.1/DTD/svg11.dtd">
<svg t="1591006154381" class="icon" viewBox="0 0 1024 1024" version="1.1" xmlns="http://www.w3.org/2000/svg" p-id="9110"
     width="16" height="16">
    <defs>
        <style type="text/css"/>
    </defs>
    <path d="M718.628571 398.514286l0.228572-0.228572-39.542857-50.628571a9.108571 9.108571 0 0 0-12.8-1.6l-57.6 44.914286-80.571429-102.971429a9.108571 9.108571 0 0 0-12.8-1.6l-43.314286 33.942857a9.108571 9.108571 0 0 0-1.6 12.8l80.571429 103.085714-0.228571 0.114286 39.542857 50.628572c3.085714 4 8.8 4.685714 12.8 1.6l57.6-44.914286 73.257143 93.714286c3.085714 4 8.8 4.685714 12.8 1.6l43.314285-33.828572c4-3.085714 4.685714-8.8 1.6-12.8l-73.257143-93.828571zM621.714286 54.857143c-191.885714 0-347.428571 155.542857-347.428572 347.428571 0 80.342857 27.314286 154.285714 73.028572 213.142857L57.485714 905.257143a9.177143 9.177143 0 0 0 0 12.914286l48.342857 48.342857c3.542857 3.542857 9.371429 3.542857 12.914286 0l289.828572-289.828572C467.428571 722.4 541.371429 749.714286 621.714286 749.714286c191.885714 0 347.428571-155.542857 347.428571-347.428572S813.6 54.857143 621.714286 54.857143z m184.228571 531.657143C756.8 635.771429 691.314286 662.857143 621.714286 662.857143s-135.085714-27.085714-184.228572-76.342857C388.228571 537.371429 361.142857 471.885714 361.142857 402.285714s27.085714-135.085714 76.342857-184.228571c49.142857-49.257143 114.628571-76.342857 184.228572-76.342857s135.085714 27.085714 184.228571 76.342857c49.257143 49.142857 76.342857 114.628571 76.342857 184.228571s-27.085714 135.085714-76.342857 184.228572z"
          p-id="9111" fill="#d81e06"/>
</svg>